<?xml version="1.0" encoding="iso-8859-1"?>
<!-- Generator: Adobe Illustrator 19.0.0, SVG Export Plug-In . SVG Version: 6.00 Build 0)  -->
<svg version="1.1" id="Capa_1" xmlns="http://www.w3.org/2000/svg" xmlns:xlink="http://www.w3.org/1999/xlink" x="0px" y="0px"
	 viewBox="0 0 512.043 512.043" style="enable-background:new 0 0 512.043 512.043;" xml:space="preserve">
<g>
	<path style="fill:#F8B64C;" d="M186.64,330.923c0.853,1.163,0.747,1.163-0.107,0H186.64z"/>
	<path style="fill:#F8B64C;" d="M325.616,330.923c-0.853,1.163-0.96,1.163-0.107,0H325.616z"/>
</g>
<rect id="SVGCleanerId_0" x="325.52" y="330.88" style="fill:#F8B64C;" width="0.011" height="0.011"/>
<g>
	<rect id="SVGCleanerId_0_1_" x="325.52" y="330.88" style="fill:#F8B64C;" width="0.011" height="0.011"/>
</g>
<g>
	<path style="fill:#F8B64C;" d="M186.533,196.779c1.557,17.877-7.104,33.227-19.371,34.315
		c-12.245,1.067-23.477-12.544-25.024-30.421c-1.579-17.877,7.104-33.227,19.349-34.293
		C173.765,165.301,184.955,178.923,186.533,196.779"/>
	<path style="fill:#F8B64C;" d="M370.053,200.672c-1.557,17.856-12.768,31.477-25.045,30.4
		c-12.245-1.067-20.917-16.416-19.349-34.293c1.568-17.877,12.768-31.477,25.024-30.421
		C362.949,167.445,371.621,182.795,370.053,200.672"/>
</g>
<path style="fill:#FFD15C;" d="M256.101,47.584c-56.939,0-103.083,46.165-103.083,103.083v30.955c0,7.893,0.48,15.787,1.461,23.605
	v0.043c4.896,40.043,22.144,77.547,49.355,107.339l9.771,10.709c8.981,9.835,21.685,15.456,34.997,15.456h14.933
	c13.312,0,26.016-5.6,34.997-15.435l9.813-10.731c27.232-29.792,44.48-67.339,49.397-107.371c0.981-7.851,1.44-15.712,1.44-23.605
	v-30.955C359.184,93.76,313.019,47.584,256.101,47.584"/>
<path style="fill:#F8B64C;" d="M325.52,330.965v-0.107h0.107v-40.224h-0.021c-5.205,7.691-10.933,15.061-17.248,21.963
	l-9.813,10.752c-8.981,9.835-21.685,15.413-34.997,15.413h-14.933c-13.312,0-26.016-5.6-34.997-15.435l-9.771-10.731
	c-6.293-6.88-12-14.251-17.227-21.92c0,0-0.064-0.021-0.064-0.043v40.224l-9.6,3.499c41.355,48.96,116.747,48.981,158.144,0.064
	l0.043-0.064l-9.504-3.392L325.52,330.965L325.52,330.965z"/>
<path style="fill:#40596B;" d="M510.053,464.523c0-40.309-25.397-76.352-63.253-89.92l-111.691-40.224l-0.043,0.043
	c-41.397,48.917-116.789,48.896-158.144-0.043l-111.68,40.235c-37.856,13.557-63.253,49.6-63.253,89.92V512h508.064L510.053,464.523
	L510.053,464.523z"/>
<g style="opacity:0.1;">
	<g>
		<path style="fill:#40596B;" d="M325.52,330.965v-0.128h0.107v-40.213c-0.021,0.021-0.064,0.064-0.085,0.085
			c-5.184,7.648-10.891,14.997-17.184,21.877l-9.813,10.752c-8.981,9.835-21.685,15.413-34.997,15.413h-14.933
			c-13.109,0-25.557-5.461-34.517-15.019h-0.043l47.392,47.061c27.349-1.419,54.251-13.44,73.643-36.373l0.021-0.043l0.021-0.021
			l-9.504-3.392L325.52,330.965L325.52,330.965z"/>
	</g>
</g>
<path style="fill:#334A5E;" d="M423.429,444.587c-10.059-41.419-9.579-66.4-6.88-80.875l-63.019-22.731h-0.171
	c-21.003,31.392-56.725,29.835-97.333,29.835c-40.629,0-76.352,1.557-97.333-29.835h-0.128l-62.891,22.667
	c2.688,14.475,3.168,39.499-6.859,80.939c0,0-13.749,38.731-21.44,67.413h377.376C437.2,483.317,423.429,444.587,423.429,444.587"/>
<g>
	<polygon style="fill:#40596B;" points="186.533,330.837 158.576,340.981 211.408,438.667 256.016,371.093 	"/>
	<polygon style="fill:#40596B;" points="325.584,330.837 353.541,340.981 300.699,438.667 256.101,371.093 	"/>
	<rect x="300.08" y="482.88" style="fill:#40596B;" width="105.899" height="29.163"/>
	<rect x="106.245" y="482.88" style="fill:#40596B;" width="105.877" height="29.163"/>
</g>
<g>
	<path style="fill:#F2F2F2;" d="M264.891,423.189c0,4.853-3.957,8.811-8.811,8.811s-8.811-3.957-8.811-8.811
		c0-4.875,3.957-8.811,8.811-8.811S264.891,418.315,264.891,423.189"/>
	<path style="fill:#F2F2F2;" d="M264.891,490.272c0,4.875-3.957,8.811-8.811,8.811s-8.811-3.936-8.811-8.811
		c0-4.853,3.957-8.811,8.811-8.811S264.891,485.419,264.891,490.272"/>
</g>
<g style="opacity:0.1;">
	<g>
		<path style="fill:#40596B;" d="M187.227,179.648l126.539,126.539c24.021-28.683,39.392-63.712,43.979-100.96
			c0.981-7.851,1.44-15.712,1.44-23.605v-30.955c0-51.829-38.315-94.603-88.128-101.877L187.227,179.648z"/>
	</g>
</g>
<path style="fill:#334A5E;" d="M358.949,204.149c0,0-8.896-1.163-5.92-20.395c0,0,2.912-7.061-0.309-14.357
	c-4.245-9.621-6.016-20.128-8.107-30.443c-3.232-16.149-10.709-34.816-27.851-35.456c0,0-43.275,5.525-60.651,5.525
	c-17.44,0-60.704-5.525-60.704-5.525c-17.067,0.651-24.523,19.189-27.787,35.296c-2.101,10.443-4.043,21.024-8.224,30.816
	c-3.104,7.211-0.245,14.144-0.245,14.144c2.976,19.232-5.92,20.395-5.92,20.395c-23.669-17.749-8.853-85.504-8.853-85.504
	c25.141-89.557,111.755-84.373,111.755-84.373s86.539-5.184,111.691,84.373C367.803,118.656,382.64,186.4,358.949,204.149"/>
<path style="fill:#40596B;" d="M380.997,104.32c0,0,14.293,83.957-124.917,85.877c-139.083-1.92-125.024-85.877-125.024-85.877
	l-24.309-45.003l60.811-41.504L256.08,0l88.437,17.813l60.896,41.504l-24.309,45.003H380.997z"/>
<path style="fill:#ACB3BA;" d="M369.125,148.821c7.317-10.272,10.421-20.629,11.605-28.789
	c-34.645-11.52-76.224-17.835-125.067-18.496c-48.459,0.672-89.813,6.955-124.288,18.4c1.184,8.171,4.288,18.539,11.605,28.832
	c30.795-10.379,68.501-16.149,112.683-16.747C300.229,132.608,338.181,138.421,369.125,148.821"/>
<path style="fill:#F2F2F2;" d="M262.661,83.008c0,0-6.208,0.853-6.56,2.816c0-1.963-6.581-2.816-6.581-2.816
	c-26.421-1.419-20.043-26.443-20.043-26.443c7.296-9.579,0-20.565,0-20.565l10.475-11.189c8.331,8.523,16.149,0,16.149,0
	s7.979,8.523,16.149,0L282.704,36c0,0-7.275,10.976,0,20.565C282.704,56.565,289.083,81.589,262.661,83.008"/>
<polygon style="fill:#40596B;" points="256.101,36.405 260.347,49.525 274.16,49.525 262.992,57.653 267.269,70.752 256.101,62.656 
	244.933,70.752 249.179,57.653 238.021,49.525 251.824,49.525 "/>
<g>
</g>
<g>
</g>
<g>
</g>
<g>
</g>
<g>
</g>
<g>
</g>
<g>
</g>
<g>
</g>
<g>
</g>
<g>
</g>
<g>
</g>
<g>
</g>
<g>
</g>
<g>
</g>
<g>
</g>
</svg>
